ModelForces
version=1
nRows=7
nColumns=67
inDegrees=no

This file contains the forces exerted on a model during a simulation.

A force is a generalized force, meaning that it can be either a force (N) or a torque (Nm).

Units are S.I. units (second, meters, Newtons, ...)
Angles are in degrees.

endheader
time	hamstrings_r	bifemsh_r	glut_max_r	iliopsoas_r	rect_fem_r	vasti_r	gastroc_r	soleus_r	tib_ant_r	hamstrings_l	bifemsh_l	glut_max_l	iliopsoas_l	rect_fem_l	vasti_l	gastroc_l	soleus_l	tib_ant_l	foot_r.ground.force.X	foot_r.ground.force.Y	foot_r.ground.force.Z	foot_r.ground.torque.X	foot_r.ground.torque.Y	foot_r.ground.torque.Z	foot_r.calcn_r.force.X	foot_r.calcn_r.force.Y	foot_r.calcn_r.force.Z	foot_r.calcn_r.torque.X	foot_r.calcn_r.torque.Y	foot_r.calcn_r.torque.Z	foot_r.toes_r.force.X	foot_r.toes_r.force.Y	foot_r.toes_r.force.Z	foot_r.toes_r.torque.X	foot_r.toes_r.torque.Y	foot_r.toes_r.torque.Z	foot_l.ground.force.X	foot_l.ground.force.Y	foot_l.ground.force.Z	foot_l.ground.torque.X	foot_l.ground.torque.Y	foot_l.ground.torque.Z	foot_l.calcn_l.force.X	foot_l.calcn_l.force.Y	foot_l.calcn_l.force.Z	foot_l.calcn_l.torque.X	foot_l.calcn_l.torque.Y	foot_l.calcn_l.torque.Z	foot_l.toes_l.force.X	foot_l.toes_l.force.Y	foot_l.toes_l.force.Z	foot_l.toes_l.torque.X	foot_l.toes_l.torque.Y	foot_l.toes_l.torque.Z	HipLimit_r	PotentialEnergy	HipLimit_l	PotentialEnergy	KneeLimit_r	PotentialEnergy	KneeLimit_l	PotentialEnergy	AnkleLimit_r	PotentialEnergy	AnkleLimit_l	PotentialEnergy
      0.13968242	   2179.22349384	    366.89307528	     15.67433494	    228.30705923	    673.65466481	     35.76630257	    249.81550906	    294.43721291	      7.68274766	      0.00000000	      1.51135656	     72.36572617	   1138.76721931	     75.76566931	    171.49788689	    890.76408290	    371.13716457	   1560.34596016	   -174.35914240	   -635.11254622	      0.00000000	     58.24033768	    -15.99615141	    108.76078278	    122.28635504	    469.97486107	      0.00000000	      0.00000000	      0.00000000	     12.45643265	     52.07278736	    165.13768515	      0.00000000	      0.00000000	      0.00000000	      4.55396544	      0.00000000	      0.00000000	      0.00000000	      0.00000000	      0.00000000	      0.00000000	      0.00000000	      0.00000000	      0.00000000	      0.00000000	      0.00000000	      0.00000000	      0.00000000	      0.00000000	      0.00000000	      0.00000000	      0.00000000	      0.00000000	      0.00000000	      0.00000000	      0.00000000	      0.00000000	    -58.05438141	      1.06458837	      0.00000000	      0.00000000	      0.00000000	      0.00000000	      0.00000000	      0.00000000
      0.13986279	   2178.67927175	    367.02677206	     15.64690181	    228.41611285	    672.66517745	     35.71101915	    250.10431933	    294.80994174	      7.64851261	      0.00000000	      1.50180773	     74.07239451	   1139.36785716	     75.96910196	    171.24831839	    892.63190274	    373.18329867	   1554.42625727	   -175.60665019	   -637.63360505	      0.00000000	     58.47097606	    -16.11048561	    109.28257095	    123.26808488	    472.34482165	      0.00000000	      0.00000000	      0.00000000	     12.50661497	     52.33856531	    165.28878340	      0.00000000	      0.00000000	      0.00000000	      4.55523865	      0.00000000	      0.00000000	      0.00000000	      0.00000000	      0.00000000	      0.00000000	      0.00000000	      0.00000000	      0.00000000	      0.00000000	      0.00000000	      0.00000000	      0.00000000	      0.00000000	      0.00000000	      0.00000000	      0.00000000	      0.00000000	      0.00000000	      0.00000000	      0.00000000	      0.00000000	    -58.40404800	      1.07426348	      0.00000000	      0.00000000	      0.00000000	      0.00000000	      0.00000000	      0.00000000
      0.14000000	   2178.26093248	    367.12692077	     15.62654666	    228.49894253	    671.91985059	     35.67234266	    250.32500779	    295.09496653	      7.62243376	      0.00000000	      1.49492403	     73.85700830	   1139.82823660	     76.12389098	    171.05896920	    894.15501252	    374.80487335	   1549.66365318	   -176.55522244	   -639.55904968	      0.00000000	     58.64712615	    -16.19742196	    109.68092355	    124.01492357	    474.15365650	      0.00000000	      0.00000000	      0.00000000	     12.54483628	     52.54029887	    165.40539319	      0.00000000	      0.00000000	      0.00000000	      4.55623990	      0.00000000	      0.00000000	      0.00000000	      0.00000000	      0.00000000	      0.00000000	      0.00000000	      0.00000000	      0.00000000	      0.00000000	      0.00000000	      0.00000000	      0.00000000	      0.00000000	      0.00000000	      0.00000000	      0.00000000	      0.00000000	      0.00000000	      0.00000000	      0.00000000	      0.00000000	    -58.66963894	      1.08166526	      0.00000000	      0.00000000	      0.00000000	      0.00000000	      0.00000000	      0.00000000
      0.14018037	   2177.70546469	    367.24889864	     15.60046668	    228.73998728	    671.02670386	     35.62593039	    250.61638687	    295.47157466	      7.58811098	      0.00000000	      1.51337292	     74.02578136	   1140.43720907	     76.32738306	    170.81070449	    896.28700439	    377.02017234	   1543.07711077	   -177.79990828	   -642.10056629	      0.00000000	     58.87963955	    -16.31149644	    110.20654441	    124.99543662	    476.53966296	      0.00000000	      0.00000000	      0.00000000	     12.59515746	     52.80447166	    165.56090333	      0.00000000	      0.00000000	      0.00000000	      4.55760018	      0.00000000	      0.00000000	      0.00000000	      0.00000000	      0.00000000	      0.00000000	      0.00000000	      0.00000000	      0.00000000	      0.00000000	      0.00000000	      0.00000000	      0.00000000	      0.00000000	      0.00000000	      0.00000000	      0.00000000	      0.00000000	      0.00000000	      0.00000000	      0.00000000	      0.00000000	    -59.01810582	      1.09144803	      0.00000000	      0.00000000	      0.00000000	      0.00000000	      0.00000000	      0.00000000
      0.14074748	   2175.91955768	    367.61720938	     15.52353681	    229.29336672	    668.29222034	     35.51260028	    251.54202442	    296.67016516	      7.47992942	      0.00000000	      1.57583747	     75.13588651	   1142.37003190	     76.96698262	    169.99443724	    903.88817268	    384.57859332	   1520.16068073	   -181.69354504	   -650.16935607	      0.00000000	     59.61783543	    -16.66834127	    111.87371984	    128.06634146	    484.10185645	      0.00000000	      0.00000000	      0.00000000	     12.75393779	     53.62720358	    166.06749962	      0.00000000	      0.00000000	      0.00000000	      4.56223564	      0.00000000	      0.00000000	      0.00000000	      0.00000000	      0.00000000	      0.00000000	      0.00000000	      0.00000000	      0.00000000	      0.00000000	      0.00000000	      0.00000000	      0.00000000	      0.00000000	      0.00000000	      0.00000000	      0.00000000	      0.00000000	      0.00000000	      0.00000000	      0.00000000	      0.00000000	    -60.10797467	      1.12258002	      0.00000000	      0.00000000	      0.00000000	      0.00000000	      0.00000000	      0.00000000
      0.14089831	   2175.43497519	    367.71116361	     15.50438103	    229.40995400	    667.58474037	     35.49073533	    251.79061899	    296.99264832	      7.45110437	      0.00000000	      1.59355756	     74.75713063	   1142.88610322	     77.13711221	    169.81122755	    906.12153188	    386.73229461	   1513.55870406	   -182.72368848	   -652.33503616	      0.00000000	     59.81597255	    -16.76275116	    112.32075663	    128.87964870	    486.12804677	      0.00000000	      0.00000000	      0.00000000	     12.79629956	     53.84403979	    166.20698938	      0.00000000	      0.00000000	      0.00000000	      4.56356686	      0.00000000	      0.00000000	      0.00000000	      0.00000000	      0.00000000	      0.00000000	      0.00000000	      0.00000000	      0.00000000	      0.00000000	      0.00000000	      0.00000000	      0.00000000	      0.00000000	      0.00000000	      0.00000000	      0.00000000	      0.00000000	      0.00000000	      0.00000000	      0.00000000	      0.00000000	    -60.39611603	      1.13094968	      0.00000000	      0.00000000	      0.00000000	      0.00000000	      0.00000000	      0.00000000
      0.14115007	   2174.61762555	    367.86412983	     15.47363101	    229.58953757	    666.42330124	     35.46192306	    252.20780006	    297.53439150	      7.40295784	      0.00000000	      1.62412249	     75.12204843	   1143.74678186	     77.42093363	    169.48515488	    910.02848506	    390.45391731	   1502.12491275	   -184.43735265	   -655.96858398	      0.00000000	     60.14840799	    -16.91980314	    113.07035945	    130.23331728	    489.52410034	      0.00000000	      0.00000000	      0.00000000	     12.86713539	     54.20403537	    166.44448364	      0.00000000	      0.00000000	      0.00000000	      4.56588684	      0.00000000	      0.00000000	      0.00000000	      0.00000000	      0.00000000	      0.00000000	      0.00000000	      0.00000000	      0.00000000	      0.00000000	      0.00000000	      0.00000000	      0.00000000	      0.00000000	      0.00000000	      0.00000000	      0.00000000	      0.00000000	      0.00000000	      0.00000000	      0.00000000	      0.00000000	    -60.87518084	      1.14499803	      0.00000000	      0.00000000	      0.00000000	      0.00000000	      0.00000000	      0.00000000
